<?xml version="1.0" encoding="utf-8"?>
<!-- Generator: Adobe Illustrator 16.0.0, SVG Export Plug-In . SVG Version: 6.00 Build 0)  -->
<!DOCTYPE svg PUBLIC "-//W3C//DTD SVG 1.1//EN" "http://www.w3.org/Graphics/SVG/1.1/DTD/svg11.dtd">
<svg version="1.1" id="Layer_1" xmlns="http://www.w3.org/2000/svg" xmlns:xlink="http://www.w3.org/1999/xlink" x="0px" y="0px"
	 width="310px" height="612px" viewBox="0 0 310 612" enable-background="new 0 0 310 612" xml:space="preserve">
<g id="Layer_1_1_" display="none">
	<path display="inline" fill="#6D8E61" d="M77.066,196.783l13.76-64.242L68.813,37.21c0,0,24.764-26.55,33.979-25.727
		c9.219,0.963,24.764-6.468,24.764-6.468l10.043,12.795L126.593,31.57l7.289,14.722l19.26-14.722l43.061,6.468l18.298-4.54V22.49
		h54.063l6.465,32.055l27.516,8.254l-27.516,42.229l-39.203,31.229l17.472,74.284l-15.685,13.756l-31.229-3.714l-40.306-5.503
		l-8.258-15.545l-23.799,15.545L77.066,196.783z"/>
</g>
<g id="Layer_2" display="none">
	<polygon display="inline" fill="#EAE18B" points="234.854,228.424 231.139,232.551 246.82,247.27 238.981,287.575 190.832,294.041 
		241.318,361.858 234.854,384.834 218.76,393.088 190.832,373.828 165.109,383.871 132.094,376.58 134.846,393.088 117.649,396.664 
		102.791,415.098 78.991,432.429 68.815,432.429 41.303,440.684 36.764,415.098 36.764,408.633 12.965,407.668 7.46,402.166 
		23.004,382.906 23.969,331.596 56.295,302.295 73.49,243.556 68.815,233.514 76.241,200.497 135.809,219.758 157.404,203.249 
		167.445,219.206 	"/>
</g>
<g id="Layer_3">
	<path fill="#BCBCBC" d="M169.098,605.897l34.254-20.224l-0.271-32.326l-8.396-12.934l25.035-47.732l26.963-9.217l-8.666-20.498
		l-14.441-4.678l-14.03-28.752l7.291-33.701l-25.313-18.295l-27.789,9.9l-29.021-7.979l3.576,13.757l-21.322,7.018l-16.371,20.771
		L82.71,432.977l4.264,8.527l-15.131-5.229c0,0,9.078,15.817,7.842,25.447c-1.238,9.629-10.729,33.15-10.729,33.15l9.354,6.739
		l0.551,55.024l-9.217,14.58l0.141,22.013c0,0-5.504,4.129-5.364,11.69c0,7.564,4.678-8.254,24.073-7.151
		c19.259,1.237,56.398,2.2,56.398,2.2"/>
	<path fill="#BCBCBC" d="M176.389,604.522"/>
</g>
</svg>
