<?xml version="1.0" encoding="utf-8"?>
<!-- Generator: Adobe Illustrator 16.0.0, SVG Export Plug-In . SVG Version: 6.00 Build 0)  -->
<!DOCTYPE svg PUBLIC "-//W3C//DTD SVG 1.1//EN" "http://www.w3.org/Graphics/SVG/1.1/DTD/svg11.dtd">
<svg version="1.1" id="Layer_1" xmlns="http://www.w3.org/2000/svg" xmlns:xlink="http://www.w3.org/1999/xlink" x="0px" y="0px"
	 width="310px" height="612px" viewBox="0 0 310 612" enable-background="new 0 0 310 612" xml:space="preserve">
<g id="Layer_3">
	<path fill="#4A7F42" d="M169.098,605.897l34.254-20.224l-0.271-32.326l-8.396-12.934l25.035-47.732l26.963-9.217l-8.666-20.498
		l-14.441-4.678l-14.03-28.752l7.291-33.701l-25.313-18.295l-27.789,9.9l-29.021-7.979l3.576,13.757l-21.322,7.018l-16.371,20.771
		L82.71,432.977l4.264,8.527l-15.131-5.229c0,0,9.078,15.817,7.842,25.447c-1.238,9.629-10.729,33.15-10.729,33.15l9.354,6.739
		l0.551,55.024l-9.217,14.58l0.141,22.013c0,0-5.504,4.129-5.364,11.69c0,7.564,4.678-8.254,24.073-7.151
		c19.259,1.237,56.398,2.2,56.398,2.2"/>
	<path fill="#5F8754" d="M176.389,604.522"/>
</g>
</svg>
