<?xml version="1.0" encoding="utf-8"?>
<!-- Generator: Adobe Illustrator 16.0.0, SVG Export Plug-In . SVG Version: 6.00 Build 0)  -->
<!DOCTYPE svg PUBLIC "-//W3C//DTD SVG 1.1//EN" "http://www.w3.org/Graphics/SVG/1.1/DTD/svg11.dtd">
<svg version="1.1" id="Layer_1" xmlns="http://www.w3.org/2000/svg" xmlns:xlink="http://www.w3.org/1999/xlink" x="0px" y="0px"
	 width="310px" height="455.5px" viewBox="0 0 310 455.5" enable-background="new 0 0 310 455.5" xml:space="preserve">
<g id="Layer_2">
	<polygon fill="#BCBCBC" points="234.854,228.424 231.139,232.551 246.82,247.27 238.981,287.575 190.832,294.041 241.318,361.858 
		234.854,384.834 218.76,393.088 190.832,373.828 165.109,383.871 132.094,376.58 134.846,393.088 117.649,396.664 102.791,415.098 
		78.991,432.429 68.815,432.429 41.303,440.684 36.764,415.098 36.764,408.633 12.965,407.668 7.46,402.166 23.004,382.906 
		23.969,331.596 56.295,302.295 73.49,243.556 68.815,233.514 76.241,200.497 135.809,219.758 157.404,203.249 167.445,219.206 	"/>
</g>
</svg>
